<svg version="1.1" id="Layer_1" xmlns="http://www.w3.org/2000/svg" xmlns:xlink="http://www.w3.org/1999/xlink" x="0px" y="0px"
	 width="100%" viewBox="0 0 800 800" enable-background="new 0 0 800 800" xml:space="preserve">
<path fill="#E9BEB5" opacity="1.000000" stroke="none" 
	d="
M442.000000,801.000000 
	C294.666656,801.000000 147.833328,801.000000 1.000000,801.000000 
	C1.000000,534.333313 1.000000,267.666656 1.000000,1.000000 
	C267.666656,1.000000 534.333313,1.000000 801.000000,1.000000 
	C801.000000,267.666656 801.000000,534.333313 801.000000,801.000000 
	C681.500000,801.000000 562.000000,801.000000 442.000000,801.000000 
M60.708427,495.237946 
	C64.127861,501.128937 67.549667,507.018585 70.966011,512.911377 
	C74.389076,518.815735 75.407143,519.196167 82.470108,517.181213 
	C82.470108,506.615387 82.470108,496.049622 82.470108,485.492493 
	C80.401268,485.492493 78.698875,485.492493 76.694839,485.492493 
	C76.694839,493.393250 76.694839,500.908234 76.694839,508.423218 
	C72.255951,502.442993 68.233589,496.366608 65.077026,489.869568 
	C62.512482,484.591034 58.883827,484.374695 54.174263,485.615753 
	C54.174263,496.453339 54.174263,507.030121 54.174263,517.664307 
	C56.012276,517.664307 57.553719,517.664307 59.419273,517.664307 
	C59.419273,510.039368 59.419273,502.750031 59.787235,495.180359 
	C59.787235,495.180359 60.126038,494.865387 60.708427,495.237946 
M582.490967,301.176971 
	C581.799744,309.738525 580.539062,318.298706 580.518250,326.861877 
	C580.438538,359.672913 580.699463,392.485352 580.953491,425.296326 
	C581.064026,439.571899 592.452332,450.919373 606.762329,450.952301 
	C645.578979,451.041626 684.395996,451.045715 723.212646,450.955078 
	C738.108093,450.920258 749.023926,439.870483 749.041931,425.015381 
	C749.088135,386.864990 748.652832,348.707977 749.262756,310.567291 
	C749.500427,295.702637 736.526245,283.786926 722.338745,283.901123 
	C684.190796,284.208130 646.038696,284.014679 607.888245,284.000244 
	C595.904785,283.995728 587.808594,289.864624 582.490967,301.176971 
M175.063217,428.609955 
	C175.764648,427.031738 177.073639,425.455383 177.078445,423.875031 
	C177.192627,386.393097 177.169296,348.910675 177.155533,311.428375 
	C177.154999,309.976135 177.000412,308.523926 176.892456,306.631012 
	C172.102982,306.631012 167.607544,306.903961 163.162582,306.547546 
	C159.377487,306.243988 157.615433,307.709045 156.133484,311.111084 
	C145.170471,336.278381 134.005936,361.357910 122.891563,386.459198 
	C120.614693,391.601440 118.282402,396.719086 115.657471,402.555542 
	C114.536774,400.158508 113.749245,398.544006 113.019836,396.903625 
	C100.311714,368.323669 87.631058,339.731354 74.856270,311.181213 
	C74.109451,309.512146 72.710434,306.993835 71.450432,306.891296 
	C65.742508,306.426605 59.975460,306.688049 54.267197,306.688049 
	C54.267197,347.668671 54.267197,387.907013 54.267197,428.207214 
	C56.619709,428.207214 58.653080,428.207214 61.109207,428.207214 
	C61.109207,395.073517 61.109207,362.382538 61.109207,329.691559 
	C62.689102,331.067261 63.476711,332.623413 64.178749,334.217255 
	C77.389992,364.211029 90.592819,394.208557 103.790909,424.208160 
	C104.783150,426.463562 105.345428,428.726715 108.788033,428.774292 
	C112.316101,428.822968 112.797798,426.393982 113.767319,424.209076 
	C127.195503,393.946869 140.592850,363.670990 154.010040,333.403900 
	C154.701538,331.844025 155.503708,330.333252 156.254349,328.799591 
	C156.585602,328.897614 156.916855,328.995605 157.248108,329.093628 
	C157.248108,362.142059 157.248108,395.190521 157.248108,428.645294 
	C163.193634,428.645294 168.665634,428.645294 175.063217,428.609955 
M459.067657,369.378754 
	C467.635162,374.799103 476.451080,379.870789 484.695343,385.744812 
	C491.917725,390.890717 494.213654,398.399384 491.673767,407.007599 
	C489.342346,414.909485 481.730743,420.741241 473.004913,421.308929 
	C461.254486,422.073456 452.059662,417.105774 444.777893,408.159637 
	C442.821960,405.756592 440.889984,403.334076 438.776611,400.708862 
	C436.869690,402.837494 435.336609,404.548798 433.880402,406.174316 
	C441.784393,419.476868 457.988312,428.748230 473.136414,428.849091 
	C489.348297,428.957031 502.420013,419.989471 506.855957,405.716431 
	C511.778534,389.877625 506.834869,375.351624 493.001129,366.004425 
	C486.664856,361.723083 479.875702,358.114960 473.501709,353.885437 
	C467.972382,350.216431 462.281616,346.574799 457.549591,342.002625 
	C454.799683,339.345581 452.670685,335.011627 452.221436,331.201263 
	C450.864441,319.692322 460.927490,312.074738 473.437378,314.336578 
	C482.066864,315.896790 487.970581,321.187775 492.887329,328.587463 
	C494.991608,326.828705 496.811371,325.307739 498.581543,323.828217 
	C492.576355,314.179871 484.327545,308.955658 473.646606,307.296448 
	C460.262604,305.217346 447.872528,310.236877 441.422913,320.564453 
	C434.808807,331.155579 434.972992,345.647308 443.079559,355.735504 
	C447.249176,360.924438 453.262177,364.632111 459.067657,369.378754 
M382.960968,390.775146 
	C381.830322,380.161194 376.811371,371.894897 367.806885,366.181000 
	C360.220825,361.367218 352.365814,356.964935 344.909271,351.963867 
	C339.827026,348.555206 334.798309,344.850037 330.524933,340.510162 
	C325.805939,335.717712 325.234375,329.491333 327.937988,323.310059 
	C330.688873,317.020630 335.791077,314.108459 342.602295,314.006958 
	C351.348267,313.876617 358.440674,317.245056 363.959381,323.985443 
	C365.101166,325.379974 366.174835,326.830200 367.491455,328.527466 
	C369.571350,326.832947 371.411865,325.333466 373.246155,323.839050 
	C367.978271,316.252563 361.971924,310.860931 353.454865,308.476227 
	C336.938782,303.851807 321.477570,309.445404 314.674835,322.776367 
	C307.431030,336.971649 311.673309,353.591858 325.575287,363.883759 
	C331.039764,367.929230 337.107269,371.152832 342.831451,374.856873 
	C348.548706,378.556458 354.444580,382.052155 359.782715,386.247314 
	C366.609131,391.612061 368.924011,398.951508 365.996704,407.236328 
	C363.012817,415.681458 356.729248,420.567596 347.727844,421.265381 
	C337.680359,422.044312 329.041870,418.661041 322.142517,411.264771 
	C319.109070,408.012817 316.357300,404.498047 313.224213,400.803802 
	C311.461273,402.801514 309.863800,404.611755 308.184021,406.515228 
	C315.414062,416.623291 324.373383,423.888702 336.022675,427.126526 
	C361.440399,434.191193 384.397827,418.880157 382.960968,390.775146 
M235.028900,359.500000 
	C235.028900,382.410278 235.028900,405.320557 235.028900,428.361267 
	C242.051514,428.361267 248.311234,428.361267 254.737610,428.361267 
	C254.737610,387.711334 254.737610,347.359009 254.737610,306.885132 
	C248.072098,306.885132 241.788910,306.885132 235.028915,306.885132 
	C235.028915,324.253387 235.028915,341.376678 235.028900,359.500000 
M664.776794,516.021118 
	C664.776794,509.156616 664.776794,502.292114 664.776794,495.427612 
	C669.227539,500.889069 672.596985,506.691925 675.955200,512.501343 
	C679.628845,518.856445 680.463623,519.195923 687.663818,517.228821 
	C687.663818,506.646423 687.663818,496.078827 687.663818,485.500366 
	C685.628174,485.500366 683.924316,485.500366 681.720093,485.500366 
	C681.720093,493.360962 681.720093,500.832031 681.720093,509.747620 
	C677.453430,502.418274 673.955994,496.405579 670.453857,490.395630 
	C666.880920,484.264252 666.196716,483.994904 658.947449,485.888855 
	C658.947449,496.451355 658.947449,507.034821 658.947449,518.445557 
	C661.137634,517.855713 662.897400,517.381836 664.776794,516.021118 
M301.131500,488.797363 
	C301.131500,498.399719 301.131500,508.002045 301.131500,517.833435 
	C306.089233,517.833435 310.435303,518.252197 314.671112,517.746887 
	C323.715179,516.667908 328.667664,510.558105 328.632416,501.253113 
	C328.597656,492.075592 323.416321,486.210754 314.197205,485.253082 
	C310.898987,484.910461 307.519928,484.898712 304.225098,485.220612 
	C303.121155,485.328430 302.164124,486.940369 301.131500,488.797363 
M569.823792,505.125916 
	C570.474609,504.012421 571.318298,502.966797 571.738770,501.772247 
	C572.837524,498.650116 574.597717,495.442535 574.522339,492.306854 
	C574.430115,488.474335 571.144714,486.225525 567.381226,485.800507 
	C562.516846,485.251190 557.597717,485.187012 552.544556,484.905151 
	C552.544556,496.411774 552.544556,507.080231 552.544556,517.678406 
	C554.878540,517.678406 556.784241,517.678406 559.231812,517.678406 
	C559.231812,513.469666 559.231812,509.580353 559.231812,504.230042 
	C561.644409,505.783142 563.269470,506.402466 564.256042,507.564117 
	C565.745361,509.317780 567.004517,511.349701 567.977356,513.441956 
	C569.977966,517.744690 573.066650,519.078125 578.000854,517.404114 
	C575.341431,513.450317 572.772339,509.630951 569.823792,505.125916 
M140.019958,507.331177 
	C137.924026,501.384460 135.729019,495.470032 133.774414,489.477203 
	C132.813400,486.530762 131.696228,484.880981 127.994621,484.828430 
	C124.045761,484.772369 122.857697,486.576660 121.913574,489.728424 
	C120.724480,493.698029 119.213516,497.571198 117.842682,501.486420 
	C115.969093,506.837463 114.096649,512.188904 112.218559,517.554993 
	C117.288033,518.895874 120.158081,517.865295 121.106094,512.860657 
	C121.318314,511.740356 123.459251,510.556549 124.906967,510.205872 
	C126.790199,509.749725 128.983475,509.693512 130.826279,510.221985 
	C132.372040,510.665283 134.595413,512.024231 134.808884,513.270630 
	C135.762375,518.837952 139.274246,518.412659 143.618591,517.635498 
	C142.443573,514.308533 141.344116,511.195557 140.019958,507.331177 
M614.774536,510.447418 
	C614.774536,508.365753 614.774536,506.284058 614.774536,503.741882 
	C618.802185,503.741882 622.071655,503.741882 625.584351,503.741882 
	C625.584351,501.721832 625.584351,500.175415 625.584351,498.367035 
	C621.878235,498.185852 618.470520,498.019257 615.112305,497.855103 
	C615.112305,495.307068 615.112305,493.247589 615.112305,490.665833 
	C619.096008,490.665833 622.689575,490.665833 626.442993,490.665833 
	C626.442993,488.591125 626.442993,487.049164 626.442993,485.304504 
	C620.142578,485.304504 614.208191,485.304504 608.136780,485.304504 
	C608.136780,496.263824 608.136780,506.993103 608.136780,517.761292 
	C614.413391,517.761292 620.351929,517.761292 626.422607,517.761292 
	C626.422607,515.960205 626.422607,514.434692 626.422607,513.133057 
	C622.335022,512.514038 618.656250,511.956909 614.774536,510.447418 
M509.541077,485.073730 
	C506.944336,485.073730 504.347626,485.073730 501.502228,485.073730 
	C501.502228,496.318634 501.502228,506.877228 501.502228,517.734314 
	C507.807648,517.734314 513.835083,517.734314 520.253662,517.734314 
	C520.141357,515.865540 520.047974,514.311768 519.927490,512.306641 
	C515.869385,512.306641 512.274170,512.306641 508.478210,512.306641 
	C508.478210,509.278900 508.478210,506.738831 508.478210,503.660522 
	C512.250305,503.660522 515.656677,503.660522 519.490845,503.660522 
	C519.370789,501.532288 519.282715,499.971069 519.166748,497.915161 
	C515.299072,497.915161 511.887695,497.915161 508.466614,497.915161 
	C508.466614,495.325928 508.466614,493.264801 508.466614,490.796875 
	C512.417297,490.796875 516.021545,490.796875 519.856934,490.796875 
	C519.856934,488.687592 519.856934,486.993225 519.856934,485.073975 
	C516.478943,485.073975 513.492188,485.073975 509.541077,485.073730 
M400.677948,512.251343 
	C400.677948,514.040894 400.677948,515.830383 400.677948,517.737915 
	C403.124939,517.737915 405.040985,517.737915 407.379150,517.737915 
	C407.379150,513.505066 407.379150,509.551575 407.379150,504.911865 
	C411.348328,504.911865 414.900635,504.911865 418.777283,504.911865 
	C418.637482,502.775421 418.544342,501.352112 418.406921,499.252594 
	C415.155670,499.252594 411.689850,500.185608 409.405426,498.944366 
	C407.712311,498.024384 407.554718,494.278412 406.354004,490.730133 
	C411.621552,490.730133 415.342651,490.730133 419.495270,490.730133 
	C419.353394,488.442932 419.256470,486.880707 419.156586,485.270325 
	C412.865265,485.270325 407.066101,485.270325 400.677765,485.270325 
	C400.677765,494.066132 400.677765,502.688477 400.677948,512.251343 
M460.556091,499.348114 
	C455.296906,497.921661 458.918427,494.091675 457.730621,490.727539 
	C462.094360,490.727539 465.815704,490.727539 469.949280,490.727539 
	C469.802795,488.498993 469.701050,486.951233 469.599976,485.413269 
	C463.213745,485.413269 457.326263,485.413269 451.369934,485.413269 
	C451.369934,496.438629 451.369934,507.120605 451.369934,517.646362 
	C453.646210,517.646362 455.545502,517.646362 457.907898,517.646362 
	C457.907898,513.359558 457.907898,509.447510 457.907898,505.016968 
	C461.763000,505.016968 465.169617,505.016968 468.701263,505.016968 
	C468.701263,502.930786 468.701263,501.385529 468.701263,499.366028 
	C466.094360,499.366028 463.797241,499.366028 460.556091,499.348114 
M727.066223,493.728027 
	C727.066223,501.676758 727.066223,509.625519 727.066223,517.784363 
	C729.578613,517.784363 731.492920,517.784363 733.970459,517.784363 
	C733.970459,508.816528 733.970459,500.076630 733.970459,491.114929 
	C737.244995,490.903625 739.977722,490.727295 743.047424,490.529205 
	C742.893799,488.488007 742.776489,486.929901 742.661804,485.406708 
	C734.256836,485.406708 726.336182,485.406708 718.028381,485.406708 
	C718.149353,487.322601 718.247864,488.882568 718.291870,489.579651 
	C721.680481,490.819733 724.357300,491.799347 727.066223,493.728027 
M213.135849,494.558716 
	C213.135849,502.300049 213.135849,510.041351 213.135849,517.672852 
	C220.381989,517.672852 226.790192,517.672852 233.278366,517.672852 
	C233.278366,515.903503 233.278366,514.484070 233.278366,512.368896 
	C228.802261,512.368896 224.590591,512.368896 219.894867,512.368896 
	C219.894867,502.942688 219.894867,494.202728 219.894867,485.407471 
	C217.462662,485.407471 215.559616,485.407471 213.135742,485.407471 
	C213.135742,488.336548 213.135742,490.958832 213.135849,494.558716 
M360.363708,498.513275 
	C360.363708,504.910706 360.363708,511.308105 360.363708,517.772461 
	C363.050720,517.772461 364.975281,517.772461 367.267944,517.772461 
	C367.267944,512.225647 367.267944,506.937714 367.267944,501.649750 
	C367.267944,496.240265 367.267944,490.830780 367.267944,485.381104 
	C364.710693,485.381104 362.805542,485.381104 360.364227,485.381104 
	C360.364227,489.629944 360.364227,493.575104 360.363708,498.513275 
M178.255417,485.156677 
	C176.659943,485.156677 175.064453,485.156677 173.009354,485.156677 
	C173.009354,490.987579 173.009354,496.259674 173.009354,501.531769 
	C173.009354,506.945831 173.009354,512.359924 173.009354,517.702759 
	C175.635101,517.702759 177.544113,517.702759 179.910156,517.702759 
	C179.910156,511.629211 180.012405,505.856384 179.878860,500.089050 
	C179.765320,495.186005 179.379944,490.289215 178.255417,485.156677 
z"/>
<path fill="#5BBCCA" opacity="1.000000" stroke="none" 
	d="
M582.636108,300.812500 
	C587.808594,289.864624 595.904785,283.995728 607.888245,284.000244 
	C646.038696,284.014679 684.190796,284.208130 722.338745,283.901123 
	C736.526245,283.786926 749.500427,295.702637 749.262756,310.567291 
	C748.652832,348.707977 749.088135,386.864990 749.041931,425.015381 
	C749.023926,439.870483 738.108093,450.920258 723.212646,450.955078 
	C684.395996,451.045715 645.578979,451.041626 606.762329,450.952301 
	C592.452332,450.919373 581.064026,439.571899 580.953491,425.296326 
	C580.699463,392.485352 580.438538,359.672913 580.518250,326.861877 
	C580.539062,318.298706 581.799744,309.738525 582.636108,300.812500 
M679.233093,387.744904 
	C686.104614,386.497681 693.149841,385.830292 699.798035,383.837952 
	C706.268188,381.898926 712.763733,379.304535 718.495422,375.775452 
	C738.189758,363.649200 739.668274,338.359497 721.675720,323.722717 
	C710.153503,314.349487 696.450195,309.618225 682.041748,307.016144 
	C663.163940,303.606964 644.139587,305.431519 625.266357,306.889618 
	C617.542236,307.486389 609.902710,310.815247 602.556763,313.736328 
	C600.144165,314.695679 596.991272,318.506989 597.254761,320.632538 
	C598.185303,328.137939 600.196899,335.555847 602.431763,342.811890 
	C602.855347,344.187073 606.382080,345.650238 608.092224,345.282684 
	C609.701233,344.936920 612.065369,342.097656 611.910645,340.578033 
	C611.188660,333.485779 615.154175,330.904785 620.963806,328.927307 
	C642.788818,321.498474 664.985901,320.771210 687.519409,324.558624 
	C698.072754,326.332458 707.671570,330.360779 716.125610,336.889954 
	C726.554688,344.944611 726.694702,356.912903 716.099609,364.554443 
	C711.317993,368.003052 705.846619,370.830292 700.284668,372.799164 
	C683.717102,378.663818 666.385742,379.292297 649.007019,379.147705 
	C641.665588,379.086609 641.807312,379.104462 642.484680,371.872162 
	C643.104858,365.250031 643.658569,358.581451 643.551270,351.944489 
	C643.469421,346.883179 639.269165,342.638550 635.645569,343.197784 
	C630.516479,343.989319 631.100525,348.356415 631.009338,351.851166 
	C630.814209,359.332672 630.842102,366.828400 631.069641,374.309418 
	C631.206116,378.795502 629.159180,380.718567 624.926147,380.960205 
	C622.273621,381.111572 619.505249,381.009888 617.026978,381.784088 
	C615.490356,382.264099 614.399658,384.171600 613.108826,385.438385 
	C614.531616,386.869232 615.752747,388.666016 617.448975,389.600769 
	C618.557129,390.211487 620.362976,389.647522 621.841492,389.479614 
	C629.112488,388.653656 630.352051,389.735352 630.305420,397.176941 
	C630.255249,405.173615 630.056274,413.170013 630.072327,421.166229 
	C630.085815,427.916290 632.545959,433.902618 636.686584,439.107880 
	C639.628723,442.806519 644.305359,442.811798 649.347473,439.719086 
	C653.395142,437.236359 651.803162,434.194000 650.476562,431.033081 
	C645.725281,419.711945 642.975525,407.969147 642.840332,395.624817 
	C642.799255,391.878998 644.065369,390.197052 647.948120,389.982422 
	C658.083984,389.422058 668.203796,388.570648 679.233093,387.744904 
z"/>
<path fill="#434A48" opacity="1.000000" stroke="none" 
	d="
M174.600433,428.627625 
	C168.665634,428.645294 163.193634,428.645294 157.248108,428.645294 
	C157.248108,395.190521 157.248108,362.142059 157.248108,329.093628 
	C156.916855,328.995605 156.585602,328.897614 156.254349,328.799591 
	C155.503708,330.333252 154.701538,331.844025 154.010040,333.403900 
	C140.592850,363.670990 127.195503,393.946869 113.767319,424.209076 
	C112.797798,426.393982 112.316101,428.822968 108.788033,428.774292 
	C105.345428,428.726715 104.783150,426.463562 103.790909,424.208160 
	C90.592819,394.208557 77.389992,364.211029 64.178749,334.217255 
	C63.476711,332.623413 62.689102,331.067261 61.109207,329.691559 
	C61.109207,362.382538 61.109207,395.073517 61.109207,428.207214 
	C58.653080,428.207214 56.619709,428.207214 54.267197,428.207214 
	C54.267197,387.907013 54.267197,347.668671 54.267197,306.688049 
	C59.975460,306.688049 65.742508,306.426605 71.450432,306.891296 
	C72.710434,306.993835 74.109451,309.512146 74.856270,311.181213 
	C87.631058,339.731354 100.311714,368.323669 113.019836,396.903625 
	C113.749245,398.544006 114.536774,400.158508 115.657471,402.555542 
	C118.282402,396.719086 120.614693,391.601440 122.891563,386.459198 
	C134.005936,361.357910 145.170471,336.278381 156.133484,311.111084 
	C157.615433,307.709045 159.377487,306.243988 163.162582,306.547546 
	C167.607544,306.903961 172.102982,306.631012 176.892456,306.631012 
	C177.000412,308.523926 177.154999,309.976135 177.155533,311.428375 
	C177.169296,348.910675 177.192627,386.393097 177.078445,423.875031 
	C177.073639,425.455383 175.764648,427.031738 174.600433,428.627625 
z"/>
<path fill="#454B49" opacity="1.000000" stroke="none" 
	d="
M458.754944,369.193970 
	C453.262177,364.632111 447.249176,360.924438 443.079559,355.735504 
	C434.972992,345.647308 434.808807,331.155579 441.422913,320.564453 
	C447.872528,310.236877 460.262604,305.217346 473.646606,307.296448 
	C484.327545,308.955658 492.576355,314.179871 498.581543,323.828217 
	C496.811371,325.307739 494.991608,326.828705 492.887329,328.587463 
	C487.970581,321.187775 482.066864,315.896790 473.437378,314.336578 
	C460.927490,312.074738 450.864441,319.692322 452.221436,331.201263 
	C452.670685,335.011627 454.799683,339.345581 457.549591,342.002625 
	C462.281616,346.574799 467.972382,350.216431 473.501709,353.885437 
	C479.875702,358.114960 486.664856,361.723083 493.001129,366.004425 
	C506.834869,375.351624 511.778534,389.877625 506.855957,405.716431 
	C502.420013,419.989471 489.348297,428.957031 473.136414,428.849091 
	C457.988312,428.748230 441.784393,419.476868 433.880402,406.174316 
	C435.336609,404.548798 436.869690,402.837494 438.776611,400.708862 
	C440.889984,403.334076 442.821960,405.756592 444.777893,408.159637 
	C452.059662,417.105774 461.254486,422.073456 473.004913,421.308929 
	C481.730743,420.741241 489.342346,414.909485 491.673767,407.007599 
	C494.213654,398.399384 491.917725,390.890717 484.695343,385.744812 
	C476.451080,379.870789 467.635162,374.799103 458.754944,369.193970 
z"/>
<path fill="#454B49" opacity="1.000000" stroke="none" 
	d="
M382.981140,391.235352 
	C384.397827,418.880157 361.440399,434.191193 336.022675,427.126526 
	C324.373383,423.888702 315.414062,416.623291 308.184021,406.515228 
	C309.863800,404.611755 311.461273,402.801514 313.224213,400.803802 
	C316.357300,404.498047 319.109070,408.012817 322.142517,411.264771 
	C329.041870,418.661041 337.680359,422.044312 347.727844,421.265381 
	C356.729248,420.567596 363.012817,415.681458 365.996704,407.236328 
	C368.924011,398.951508 366.609131,391.612061 359.782715,386.247314 
	C354.444580,382.052155 348.548706,378.556458 342.831451,374.856873 
	C337.107269,371.152832 331.039764,367.929230 325.575287,363.883759 
	C311.673309,353.591858 307.431030,336.971649 314.674835,322.776367 
	C321.477570,309.445404 336.938782,303.851807 353.454865,308.476227 
	C361.971924,310.860931 367.978271,316.252563 373.246155,323.839050 
	C371.411865,325.333466 369.571350,326.832947 367.491455,328.527466 
	C366.174835,326.830200 365.101166,325.379974 363.959381,323.985443 
	C358.440674,317.245056 351.348267,313.876617 342.602295,314.006958 
	C335.791077,314.108459 330.688873,317.020630 327.937988,323.310059 
	C325.234375,329.491333 325.805939,335.717712 330.524933,340.510162 
	C334.798309,344.850037 339.827026,348.555206 344.909271,351.963867 
	C352.365814,356.964935 360.220825,361.367218 367.806885,366.181000 
	C376.811371,371.894897 381.830322,380.161194 382.981140,391.235352 
z"/>
<path fill="#424948" opacity="1.000000" stroke="none" 
	d="
M235.028900,359.000000 
	C235.028915,341.376678 235.028915,324.253387 235.028915,306.885132 
	C241.788910,306.885132 248.072098,306.885132 254.737610,306.885132 
	C254.737610,347.359009 254.737610,387.711334 254.737610,428.361267 
	C248.311234,428.361267 242.051514,428.361267 235.028900,428.361267 
	C235.028900,405.320557 235.028900,382.410278 235.028900,359.000000 
z"/>
<path fill="#494C4A" opacity="1.000000" stroke="none" 
	d="
M664.716919,516.464539 
	C662.897400,517.381836 661.137634,517.855713 658.947449,518.445557 
	C658.947449,507.034821 658.947449,496.451355 658.947449,485.888855 
	C666.196716,483.994904 666.880920,484.264252 670.453857,490.395630 
	C673.955994,496.405579 677.453430,502.418274 681.720093,509.747620 
	C681.720093,500.832031 681.720093,493.360962 681.720093,485.500366 
	C683.924316,485.500366 685.628174,485.500366 687.663818,485.500366 
	C687.663818,496.078827 687.663818,506.646423 687.663818,517.228821 
	C680.463623,519.195923 679.628845,518.856445 675.955200,512.501343 
	C672.596985,506.691925 669.227539,500.889069 664.776794,495.427612 
	C664.776794,502.292114 664.776794,509.156616 664.716919,516.464539 
z"/>
<path fill="#494C4A" opacity="1.000000" stroke="none" 
	d="
M59.419273,495.460724 
	C59.419273,502.750031 59.419273,510.039368 59.419273,517.664307 
	C57.553719,517.664307 56.012276,517.664307 54.174263,517.664307 
	C54.174263,507.030121 54.174263,496.453339 54.174263,485.615753 
	C58.883827,484.374695 62.512482,484.591034 65.077026,489.869568 
	C68.233589,496.366608 72.255951,502.442993 76.694839,508.423218 
	C76.694839,500.908234 76.694839,493.393250 76.694839,485.492493 
	C78.698875,485.492493 80.401268,485.492493 82.470108,485.492493 
	C82.470108,496.049622 82.470108,506.615387 82.471085,517.182983 
	C75.407143,519.196167 74.389076,518.815735 70.966011,512.911377 
	C67.549667,507.018585 64.127861,501.128937 60.335220,494.800659 
	C59.758041,494.337708 59.554077,494.312012 59.350109,494.286346 
	C59.373161,494.677795 59.396217,495.069275 59.419273,495.460724 
z"/>
<path fill="#4B4D4B" opacity="1.000000" stroke="none" 
	d="
M301.135712,488.331085 
	C302.164124,486.940369 303.121155,485.328430 304.225098,485.220612 
	C307.519928,484.898712 310.898987,484.910461 314.197205,485.253082 
	C323.416321,486.210754 328.597656,492.075592 328.632416,501.253113 
	C328.667664,510.558105 323.715179,516.667908 314.671112,517.746887 
	C310.435303,518.252197 306.089233,517.833435 301.131500,517.833435 
	C301.131500,508.002045 301.131500,498.399719 301.135712,488.331085 
M308.015991,497.588654 
	C308.015991,502.376953 308.015991,507.165253 308.015991,511.865540 
	C314.235687,512.814392 317.505615,511.850098 319.684021,508.660187 
	C321.908844,505.402313 321.984741,497.529846 319.712250,494.310425 
	C316.856995,490.265381 312.747589,490.535980 308.016235,491.114838 
	C308.016235,493.042603 308.016235,494.831360 308.015991,497.588654 
z"/>
<path fill="#4A4C4A" opacity="1.000000" stroke="none" 
	d="
M570.013550,505.468750 
	C572.772339,509.630951 575.341431,513.450317 578.000854,517.404114 
	C573.066650,519.078125 569.977966,517.744690 567.977356,513.441956 
	C567.004517,511.349701 565.745361,509.317780 564.256042,507.564117 
	C563.269470,506.402466 561.644409,505.783142 559.231812,504.230042 
	C559.231812,509.580353 559.231812,513.469666 559.231812,517.678406 
	C556.784241,517.678406 554.878540,517.678406 552.544556,517.678406 
	C552.544556,507.080231 552.544556,496.411774 552.544556,484.905151 
	C557.597717,485.187012 562.516846,485.251190 567.381226,485.800507 
	C571.144714,486.225525 574.430115,488.474335 574.522339,492.306854 
	C574.597717,495.442535 572.837524,498.650116 571.738770,501.772247 
	C571.318298,502.966797 570.474609,504.012421 570.013550,505.468750 
M567.566956,493.037811 
	C564.996155,492.078613 562.425293,491.119415 559.312378,489.957947 
	C559.312378,494.070282 559.312378,496.813477 559.312378,499.526215 
	C566.202515,500.147247 567.601501,499.173859 567.566956,493.037811 
z"/>
<path fill="#494C4A" opacity="1.000000" stroke="none" 
	d="
M140.132324,507.706879 
	C141.344116,511.195557 142.443573,514.308533 143.618591,517.635498 
	C139.274246,518.412659 135.762375,518.837952 134.808884,513.270630 
	C134.595413,512.024231 132.372040,510.665283 130.826279,510.221985 
	C128.983475,509.693512 126.790199,509.749725 124.906967,510.205872 
	C123.459251,510.556549 121.318314,511.740356 121.106094,512.860657 
	C120.158081,517.865295 117.288033,518.895874 112.218559,517.554993 
	C114.096649,512.188904 115.969093,506.837463 117.842682,501.486420 
	C119.213516,497.571198 120.724480,493.698029 121.913574,489.728424 
	C122.857697,486.576660 124.045761,484.772369 127.994621,484.828430 
	C131.696228,484.880981 132.813400,486.530762 133.774414,489.477203 
	C135.729019,495.470032 137.924026,501.384460 140.132324,507.706879 
M128.709457,492.215149 
	C128.314590,492.003296 127.919701,491.791443 127.524811,491.579590 
	C126.205772,495.714325 124.886742,499.849030 123.486710,504.237671 
	C126.869247,504.237671 129.356155,504.237671 132.332001,504.237671 
	C131.092651,500.084595 130.020599,496.492126 128.709457,492.215149 
z"/>
<path fill="#4D4E4C" opacity="1.000000" stroke="none" 
	d="
M614.875977,510.923584 
	C618.656250,511.956909 622.335022,512.514038 626.422607,513.133057 
	C626.422607,514.434692 626.422607,515.960205 626.422607,517.761292 
	C620.351929,517.761292 614.413391,517.761292 608.136780,517.761292 
	C608.136780,506.993103 608.136780,496.263824 608.136780,485.304504 
	C614.208191,485.304504 620.142578,485.304504 626.442993,485.304504 
	C626.442993,487.049164 626.442993,488.591125 626.442993,490.665833 
	C622.689575,490.665833 619.096008,490.665833 615.112305,490.665833 
	C615.112305,493.247589 615.112305,495.307068 615.112305,497.855103 
	C618.470520,498.019257 621.878235,498.185852 625.584351,498.367035 
	C625.584351,500.175415 625.584351,501.721832 625.584351,503.741882 
	C622.071655,503.741882 618.802185,503.741882 614.774536,503.741882 
	C614.774536,506.284058 614.774536,508.365753 614.875977,510.923584 
z"/>
<path fill="#4E4F4D" opacity="1.000000" stroke="none" 
	d="
M510.023254,485.073853 
	C513.492188,485.073975 516.478943,485.073975 519.856934,485.073975 
	C519.856934,486.993225 519.856934,488.687592 519.856934,490.796875 
	C516.021545,490.796875 512.417297,490.796875 508.466614,490.796875 
	C508.466614,493.264801 508.466614,495.325928 508.466614,497.915161 
	C511.887695,497.915161 515.299072,497.915161 519.166748,497.915161 
	C519.282715,499.971069 519.370789,501.532288 519.490845,503.660522 
	C515.656677,503.660522 512.250305,503.660522 508.478210,503.660522 
	C508.478210,506.738831 508.478210,509.278900 508.478210,512.306641 
	C512.274170,512.306641 515.869385,512.306641 519.927490,512.306641 
	C520.047974,514.311768 520.141357,515.865540 520.253662,517.734314 
	C513.835083,517.734314 507.807648,517.734314 501.502228,517.734314 
	C501.502228,506.877228 501.502228,496.318634 501.502228,485.073730 
	C504.347626,485.073730 506.944336,485.073730 510.023254,485.073853 
z"/>
<path fill="#4B4D4B" opacity="1.000000" stroke="none" 
	d="
M400.677856,511.781097 
	C400.677765,502.688477 400.677765,494.066132 400.677765,485.270325 
	C407.066101,485.270325 412.865265,485.270325 419.156586,485.270325 
	C419.256470,486.880707 419.353394,488.442932 419.495270,490.730133 
	C415.342651,490.730133 411.621552,490.730133 406.354004,490.730133 
	C407.554718,494.278412 407.712311,498.024384 409.405426,498.944366 
	C411.689850,500.185608 415.155670,499.252594 418.406921,499.252594 
	C418.544342,501.352112 418.637482,502.775421 418.777283,504.911865 
	C414.900635,504.911865 411.348328,504.911865 407.379150,504.911865 
	C407.379150,509.551575 407.379150,513.505066 407.379150,517.737915 
	C405.040985,517.737915 403.124939,517.737915 400.677948,517.737915 
	C400.677948,515.830383 400.677948,514.040894 400.677856,511.781097 
z"/>
<path fill="#4E4F4D" opacity="1.000000" stroke="none" 
	d="
M461.028137,499.357056 
	C463.797241,499.366028 466.094360,499.366028 468.701263,499.366028 
	C468.701263,501.385529 468.701263,502.930786 468.701263,505.016968 
	C465.169617,505.016968 461.763000,505.016968 457.907898,505.016968 
	C457.907898,509.447510 457.907898,513.359558 457.907898,517.646362 
	C455.545502,517.646362 453.646210,517.646362 451.369934,517.646362 
	C451.369934,507.120605 451.369934,496.438629 451.369934,485.413269 
	C457.326263,485.413269 463.213745,485.413269 469.599976,485.413269 
	C469.701050,486.951233 469.802795,488.498993 469.949280,490.727539 
	C465.815704,490.727539 462.094360,490.727539 457.730621,490.727539 
	C458.918427,494.091675 455.296906,497.921661 461.028137,499.357056 
z"/>
<path fill="#4D4E4C" opacity="1.000000" stroke="none" 
	d="
M727.050171,493.253479 
	C724.357300,491.799347 721.680481,490.819733 718.291870,489.579651 
	C718.247864,488.882568 718.149353,487.322601 718.028381,485.406708 
	C726.336182,485.406708 734.256836,485.406708 742.661804,485.406708 
	C742.776489,486.929901 742.893799,488.488007 743.047424,490.529205 
	C739.977722,490.727295 737.244995,490.903625 733.970459,491.114929 
	C733.970459,500.076630 733.970459,508.816528 733.970459,517.784363 
	C731.492920,517.784363 729.578613,517.784363 727.066223,517.784363 
	C727.066223,509.625519 727.066223,501.676758 727.050171,493.253479 
z"/>
<path fill="#4A4C4A" opacity="1.000000" stroke="none" 
	d="
M213.135803,494.069916 
	C213.135742,490.958832 213.135742,488.336548 213.135742,485.407471 
	C215.559616,485.407471 217.462662,485.407471 219.894867,485.407471 
	C219.894867,494.202728 219.894867,502.942688 219.894867,512.368896 
	C224.590591,512.368896 228.802261,512.368896 233.278366,512.368896 
	C233.278366,514.484070 233.278366,515.903503 233.278366,517.672852 
	C226.790192,517.672852 220.381989,517.672852 213.135849,517.672852 
	C213.135849,510.041351 213.135849,502.300049 213.135803,494.069916 
z"/>
<path fill="#4F504E" opacity="1.000000" stroke="none" 
	d="
M360.363953,498.016785 
	C360.364227,493.575104 360.364227,489.629944 360.364227,485.381104 
	C362.805542,485.381104 364.710693,485.381104 367.267944,485.381104 
	C367.267944,490.830780 367.267944,496.240265 367.267944,501.649750 
	C367.267944,506.937714 367.267944,512.225647 367.267944,517.772461 
	C364.975281,517.772461 363.050720,517.772461 360.363708,517.772461 
	C360.363708,511.308105 360.363708,504.910706 360.363953,498.016785 
z"/>
<path fill="#4A4C4A" opacity="1.000000" stroke="none" 
	d="
M178.685120,485.273193 
	C179.379944,490.289215 179.765320,495.186005 179.878860,500.089050 
	C180.012405,505.856384 179.910156,511.629211 179.910156,517.702759 
	C177.544113,517.702759 175.635101,517.702759 173.009354,517.702759 
	C173.009354,512.359924 173.009354,506.945831 173.009354,501.531769 
	C173.009354,496.259674 173.009354,490.987579 173.009354,485.156677 
	C175.064453,485.156677 176.659943,485.156677 178.685120,485.273193 
z"/>
<path fill="#F9FEFE" opacity="1.000000" stroke="none" 
	d="
M678.781555,387.790100 
	C668.203796,388.570648 658.083984,389.422058 647.948120,389.982422 
	C644.065369,390.197052 642.799255,391.878998 642.840332,395.624817 
	C642.975525,407.969147 645.725281,419.711945 650.476562,431.033081 
	C651.803162,434.194000 653.395142,437.236359 649.347473,439.719086 
	C644.305359,442.811798 639.628723,442.806519 636.686584,439.107880 
	C632.545959,433.902618 630.085815,427.916290 630.072327,421.166229 
	C630.056274,413.170013 630.255249,405.173615 630.305420,397.176941 
	C630.352051,389.735352 629.112488,388.653656 621.841492,389.479614 
	C620.362976,389.647522 618.557129,390.211487 617.448975,389.600769 
	C615.752747,388.666016 614.531616,386.869232 613.108826,385.438354 
	C614.399658,384.171600 615.490356,382.264099 617.026978,381.784088 
	C619.505249,381.009888 622.273621,381.111572 624.926147,380.960205 
	C629.159180,380.718567 631.206116,378.795502 631.069641,374.309418 
	C630.842102,366.828400 630.814209,359.332672 631.009338,351.851166 
	C631.100525,348.356415 630.516479,343.989319 635.645569,343.197784 
	C639.269165,342.638550 643.469421,346.883179 643.551270,351.944489 
	C643.658569,358.581451 643.104858,365.250031 642.484680,371.872162 
	C641.807312,379.104462 641.665588,379.086609 649.007019,379.147705 
	C666.385742,379.292297 683.717102,378.663818 700.284668,372.799164 
	C705.846619,370.830292 711.317993,368.003052 716.099609,364.554443 
	C726.694702,356.912903 726.554688,344.944611 716.125610,336.889954 
	C707.671570,330.360779 698.072754,326.332458 687.519409,324.558624 
	C664.985901,320.771210 642.788818,321.498474 620.963806,328.927307 
	C615.154175,330.904785 611.188660,333.485779 611.910645,340.578033 
	C612.065369,342.097656 609.701233,344.936920 608.092224,345.282684 
	C606.382080,345.650238 602.855347,344.187073 602.431763,342.811890 
	C600.196899,335.555847 598.185303,328.137939 597.254761,320.632538 
	C596.991272,318.506989 600.144165,314.695679 602.556763,313.736328 
	C609.902710,310.815247 617.542236,307.486389 625.266357,306.889618 
	C644.139587,305.431519 663.163940,303.606964 682.041748,307.016144 
	C696.450195,309.618225 710.153503,314.349487 721.675720,323.722717 
	C739.668274,338.359497 738.189758,363.649200 718.495422,375.775452 
	C712.763733,379.304535 706.268188,381.898926 699.798035,383.837952 
	C693.149841,385.830292 686.104614,386.497681 678.781555,387.790100 
z"/>
<path fill="#E9BEB5" opacity="1.000000" stroke="none" 
	d="
M59.603256,495.320557 
	C59.396217,495.069275 59.373161,494.677795 59.350109,494.286346 
	C59.554077,494.312012 59.758041,494.337708 60.044022,494.614380 
	C60.126038,494.865387 59.787235,495.180359 59.603256,495.320557 
z"/>
<path fill="#E4BEB5" opacity="1.000000" stroke="none" 
	d="
M308.016113,497.104370 
	C308.016235,494.831360 308.016235,493.042603 308.016235,491.114838 
	C312.747589,490.535980 316.856995,490.265381 319.712250,494.310425 
	C321.984741,497.529846 321.908844,505.402313 319.684021,508.660187 
	C317.505615,511.850098 314.235687,512.814392 308.015991,511.865540 
	C308.015991,507.165253 308.015991,502.376953 308.016113,497.104370 
z"/>
<path fill="#E4BEB5" opacity="1.000000" stroke="none" 
	d="
M567.722534,493.419586 
	C567.601501,499.173859 566.202515,500.147247 559.312378,499.526215 
	C559.312378,496.813477 559.312378,494.070282 559.312378,489.957947 
	C562.425293,491.119415 564.996155,492.078613 567.722534,493.419586 
z"/>
<path fill="#D4B4AD" opacity="1.000000" stroke="none" 
	d="
M128.829010,492.557404 
	C130.020599,496.492126 131.092651,500.084595 132.332001,504.237671 
	C129.356155,504.237671 126.869247,504.237671 123.486710,504.237671 
	C124.886742,499.849030 126.205772,495.714325 127.524818,491.579590 
	C127.919701,491.791443 128.314590,492.003296 128.829010,492.557404 
z"/>
</svg>