<svg version="1.1" id="Layer_1" xmlns="http://www.w3.org/2000/svg" xmlns:xlink="http://www.w3.org/1999/xlink" x="0px" y="0px"
	 width="100%" viewBox="0 0 1280 1024" enable-background="new 0 0 1280 1024" xml:space="preserve">
<path fill="#1170A3" opacity="1.000000" stroke="none" 
	d="
M911.000000,1025.000000 
	C607.333313,1025.000000 304.166656,1025.000000 1.000000,1025.000000 
	C1.000000,683.666687 1.000000,342.333344 1.000000,1.000000 
	C427.666656,1.000000 854.333313,1.000000 1281.000000,1.000000 
	C1281.000000,342.333344 1281.000000,683.666687 1281.000000,1025.000000 
	C1157.833374,1025.000000 1034.666626,1025.000000 911.000000,1025.000000 
M428.998901,724.598145 
	C436.726562,723.391479 444.533325,722.554504 452.169434,720.920105 
	C516.145203,707.226562 563.307617,672.076111 590.001648,611.538330 
	C608.431274,569.742737 612.870972,525.894653 606.719788,480.925018 
	C603.009827,453.802673 594.955139,428.007965 580.273926,404.602783 
	C579.167969,402.839600 577.931763,401.158051 576.756042,399.438568 
	C576.178772,401.264923 576.378235,402.699127 576.596863,404.130371 
	C582.407959,442.176636 583.019897,480.123962 573.988220,517.807800 
	C565.782593,552.044922 551.022766,582.839233 524.501038,606.781372 
	C496.903778,631.694397 464.709717,642.840942 427.696045,634.834229 
	C395.632599,627.898315 371.401459,610.588196 359.944031,578.440857 
	C350.146027,550.949768 349.906433,522.735962 355.424561,494.604401 
	C370.870483,415.861023 412.482269,353.734070 477.485260,307.307159 
	C517.453735,278.760620 562.492859,262.852478 611.187683,257.246002 
	C641.193604,253.791290 671.028381,254.416321 700.567261,261.542328 
	C734.689331,269.773926 763.978088,287.104584 790.685242,309.237946 
	C808.130798,323.695801 825.072693,338.767700 842.671692,353.032288 
	C859.878296,366.978851 878.788025,378.008820 900.582886,383.418304 
	C917.141235,387.528046 933.842468,387.759033 950.710876,385.995728 
	C958.205688,385.212250 961.575317,387.968323 962.873840,395.317261 
	C964.147339,402.524628 965.366943,409.755829 966.206360,417.023224 
	C970.888428,457.558624 961.646423,494.361969 936.558350,526.903503 
	C918.968689,549.718872 897.001770,567.804932 874.080078,584.835693 
	C847.876038,604.305176 821.186218,623.139038 795.360840,643.094666 
	C771.492310,661.538147 750.393066,682.918762 735.302368,709.370300 
	C714.126770,746.487488 705.423706,785.927002 716.789734,828.021362 
	C728.285034,870.594360 756.315002,900.432922 792.937378,923.086792 
	C794.391235,923.986145 797.167786,923.830994 798.857666,923.091797 
	C811.198364,917.693298 823.663147,912.496399 835.640259,906.360474 
	C1010.416565,816.822632 1101.392334,618.743469 1055.086792,427.966522 
	C1033.561646,339.283844 987.639893,265.073151 918.749573,205.467346 
	C847.062622,143.441940 763.588318,108.728157 668.910034,102.305016 
	C595.351501,97.314674 524.849548,110.442375 458.362274,142.536285 
	C361.249390,189.413437 291.325165,262.732117 248.493683,361.680054 
	C230.220306,403.894684 219.874908,448.184387 216.257050,494.005859 
	C214.418030,517.297485 213.910812,540.608887 218.195679,563.759888 
	C236.039749,660.170288 321.491699,734.355774 428.998901,724.598145 
M831.486511,435.764648 
	C830.971741,432.313873 830.733582,428.794525 829.897522,425.423431 
	C824.171570,402.336151 801.197144,385.464203 778.315369,387.409363 
	C752.005005,389.645966 731.867981,409.300568 730.202698,434.369293 
	C729.723450,441.583923 734.846130,447.922455 741.878113,448.815765 
	C748.249451,449.625214 754.657776,444.820251 756.076233,438.138763 
	C756.387146,436.674255 756.579773,435.184937 756.845154,433.710358 
	C759.581543,418.506653 775.889526,409.398438 790.055481,415.461365 
	C800.057495,419.742188 805.012268,427.631989 805.219116,438.587494 
	C805.409851,448.691589 812.209656,454.799622 821.066406,453.077942 
	C827.964417,451.737030 831.407227,446.317749 831.486511,435.764648 
z"/>
<path fill="#D5FDFF" opacity="1.000000" stroke="none" 
	d="
M428.540466,724.657593 
	C321.491699,734.355774 236.039749,660.170288 218.195679,563.759888 
	C213.910812,540.608887 214.418030,517.297485 216.257050,494.005859 
	C219.874908,448.184387 230.220306,403.894684 248.493683,361.680054 
	C291.325165,262.732117 361.249390,189.413437 458.362274,142.536285 
	C524.849548,110.442375 595.351501,97.314674 668.910034,102.305016 
	C763.588318,108.728157 847.062622,143.441940 918.749573,205.467346 
	C987.639893,265.073151 1033.561646,339.283844 1055.086792,427.966522 
	C1101.392334,618.743469 1010.416565,816.822632 835.640259,906.360474 
	C823.663147,912.496399 811.198364,917.693298 798.857666,923.091797 
	C797.167786,923.830994 794.391235,923.986145 792.937378,923.086792 
	C756.315002,900.432922 728.285034,870.594360 716.789734,828.021362 
	C705.423706,785.927002 714.126770,746.487488 735.302368,709.370300 
	C750.393066,682.918762 771.492310,661.538147 795.360840,643.094666 
	C821.186218,623.139038 847.876038,604.305176 874.080078,584.835693 
	C897.001770,567.804932 918.968689,549.718872 936.558350,526.903503 
	C961.646423,494.361969 970.888428,457.558624 966.206360,417.023224 
	C965.366943,409.755829 964.147339,402.524628 962.873840,395.317261 
	C961.575317,387.968323 958.205688,385.212250 950.710876,385.995728 
	C933.842468,387.759033 917.141235,387.528046 900.582886,383.418304 
	C878.788025,378.008820 859.878296,366.978851 842.671692,353.032288 
	C825.072693,338.767700 808.130798,323.695801 790.685242,309.237946 
	C763.978088,287.104584 734.689331,269.773926 700.567261,261.542328 
	C671.028381,254.416321 641.193604,253.791290 611.187683,257.246002 
	C562.492859,262.852478 517.453735,278.760620 477.485260,307.307159 
	C412.482269,353.734070 370.870483,415.861023 355.424561,494.604401 
	C349.906433,522.735962 350.146027,550.949768 359.944031,578.440857 
	C371.401459,610.588196 395.632599,627.898315 427.696045,634.834229 
	C464.709717,642.840942 496.903778,631.694397 524.501038,606.781372 
	C551.022766,582.839233 565.782593,552.044922 573.988220,517.807800 
	C583.019897,480.123962 582.407959,442.176636 576.596863,404.130371 
	C576.378235,402.699127 576.178772,401.264923 576.756042,399.438568 
	C577.931763,401.158051 579.167969,402.839600 580.273926,404.602783 
	C594.955139,428.007965 603.009827,453.802673 606.719788,480.925018 
	C612.870972,525.894653 608.431274,569.742737 590.001648,611.538330 
	C563.307617,672.076111 516.145203,707.226562 452.169434,720.920105 
	C444.533325,722.554504 436.726562,723.391479 428.540466,724.657593 
z"/>
<path fill="#D3FBFE" opacity="1.000000" stroke="none" 
	d="
M831.501099,436.197235 
	C831.407227,446.317749 827.964417,451.737030 821.066406,453.077942 
	C812.209656,454.799622 805.409851,448.691589 805.219116,438.587494 
	C805.012268,427.631989 800.057495,419.742188 790.055481,415.461365 
	C775.889526,409.398438 759.581543,418.506653 756.845154,433.710358 
	C756.579773,435.184937 756.387146,436.674255 756.076233,438.138763 
	C754.657776,444.820251 748.249451,449.625214 741.878113,448.815765 
	C734.846130,447.922455 729.723450,441.583923 730.202698,434.369293 
	C731.867981,409.300568 752.005005,389.645966 778.315369,387.409363 
	C801.197144,385.464203 824.171570,402.336151 829.897522,425.423431 
	C830.733582,428.794525 830.971741,432.313873 831.501099,436.197235 
z"/>
</svg>